<?xml version="1.0" encoding="UTF-8" standalone="no"?>
<svg
   viewBox="minX minY width height"
   version="1.1"
   id="svg1"
   sodipodi:docname="New Jersey Counties.svg"
   width="300"
   height="600"
   inkscape:version="1.4.2 (f4327f4, 2025-05-13)"
   xmlns:inkscape="http://www.inkscape.org/namespaces/inkscape"
   xmlns:sodipodi="http://sodipodi.sourceforge.net/DTD/sodipodi-0.dtd"
   xmlns="http://www.w3.org/2000/svg"
   xmlns:svg="http://www.w3.org/2000/svg">
  <defs
     id="defs1" />
  <sodipodi:namedview
     id="namedview1"
     pagecolor="#ffffff"
     bordercolor="#000000"
     borderopacity="0.25"
     inkscape:showpageshadow="2"
     inkscape:pageopacity="0.0"
     inkscape:pagecheckerboard="0"
     inkscape:deskcolor="#d1d1d1"
     inkscape:zoom="1.9664963"
     inkscape:cx="2.2883338"
     inkscape:cy="306.89099"
     inkscape:window-width="1920"
     inkscape:window-height="1111"
     inkscape:window-x="-9"
     inkscape:window-y="-9"
     inkscape:window-maximized="1"
     inkscape:current-layer="svg1" />
  <path class="county"
     d="m 117.23311,449.91575 c -0.713,0.859 -1.781,5.021 -2.373,9.25 -0.904,6.462 -1.435,7.845 -3.326,8.675 -1.271,0.558 -2.244,1.863 -2.235,3 0.016,2.266 2.713,10.463 3.95,12.005 0.445,0.554 1.117,2.879 1.494,5.167 0.551,3.338 0.178,5.232 -1.887,9.596 -1.414,2.991 -2.572,6.148 -2.572,7.015 0,0.867 -1.041,2.849 -2.313,4.403 -3.884,4.747 -6.456,13.031 -6.734,21.69 -0.091,2.804 0.405,2.919 6.719,1.568 5.664,-1.212 10.061,-3.176 4.904,-2.19 -1.909,0.365 -2.576,0.073 -2.576,-1.124 0,-1.078 0.874,-1.617 2.622,-1.617 2.183,0 2.42,-0.244 1.414,-1.456 -1.385,-1.669 -0.451,-3.918 1.203,-2.896 0.694,0.429 0.879,0.103 0.501,-0.883 -0.459,-1.197 0.227,-1.659 2.934,-1.975 4.366,-0.51 5.66,1.711 2.493,4.276 -1.192,0.965 -2.167,2.042 -2.167,2.394 0,1.115 2.799,-0.871 7.382,-5.239 4.216,-4.018 4.382,-4.385 3.293,-7.271 -0.745,-1.974 -0.802,-3.287 -0.161,-3.745 0.542,-0.388 1.849,-2.401 2.904,-4.474 l 1.918,-3.77 -2.224,-2.071 c -3.029,-2.822 -2.366,-5.315 1.514,-5.693 3.065,-0.3 3.116,-0.229 3.608,4.883 0.401,4.172 0.133,5.553 -1.368,7.054 -1.026,1.026 -1.866,2.401 -1.866,3.055 0,1.723 3.473,-2.272 5.91,-6.798 1.153,-2.14 2.864,-4.964 3.804,-6.275 1.673,-2.335 1.661,-2.37 -0.576,-1.66 -1.646,0.523 -2.675,0.211 -3.68,-1.115 -1.774,-2.342 -1.81,-3.341 -0.119,-3.341 0.737,0 1.902,-1.233 2.588,-2.74 1.098,-2.41 1.39,-2.546 2.424,-1.133 0.926,1.267 1.418,1.345 2.328,0.371 2.106,-2.254 6.403,-11.557 5.793,-12.543 -0.773,-1.251 1.614,-3.636 4.099,-4.097 1.144,-0.212 2.866,-2.319 4.233,-5.181 1.668,-3.494 3.235,-5.213 5.681,-6.235 1.858,-0.777 3.679,-1.898 4.047,-2.493 1.21,-1.958 -0.423,-2.251 -3.029,-0.543 -1.408,0.922 -3.066,1.364 -3.686,0.981 -0.674,-0.417 -0.849,-0.248 -0.435,0.422 0.741,1.198 -2.679,5.191 -4.446,5.191 -0.597,0 -0.926,-1.415 -0.75,-3.224 0.353,-3.626 1.494,-3.243 -17.186,-5.782 -4.675,-0.635 -10.3,-1.4 -12.5,-1.699 -2.2,-0.299 -4.888,-1.163 -5.973,-1.92 -2.559,-1.784 -3.982,-1.736 -5.578,0.187"
     id="Cape May" />
  <path class="county"
     d="m 84.787114,396.60375 c -0.295,1.238 -0.925,6.209 -1.4,11.047 -0.475,4.839 -1.119,9.052 -1.431,9.364 -0.312,0.312 -6.21,-4.209 -13.107,-10.047 -6.897,-5.838 -12.895,-10.614 -13.329,-10.614 -0.434,0 -3.916,3.15 -7.736,7 -3.82,3.85 -7.633,7.003 -8.473,7.007 -0.84,0.004 -2.621,1.613 -3.959,3.577 -2.187,3.211 -2.766,3.508 -5.75,2.948 -2.731,-0.513 -3.341,-0.305 -3.447,1.173 -0.071,0.987 -0.233,3.145 -0.36,4.795 -0.507,6.59 6.511,21.7 8.549,18.404 1.412,-2.285 4.703,0.188 6.485,4.874 1.957,5.147 4.37,7.662 5.905,6.155 2.488,-2.443 8.55,0.211 8.55,3.742 0,1.249 1.263,2.557 3.5,3.624 1.925,0.918 3.5,2.126 3.5,2.685 0,0.559 0.62,1.016 1.378,1.016 2.135,0 3.872,2.698 4.032,6.262 0.158,3.533 2.424,7.738 4.17,7.738 0.604,0 1.612,-1.125 2.238,-2.5 0.627,-1.375 1.711,-2.565 2.411,-2.645 0.699,-0.08 2.846,-0.258 4.771,-0.395 1.925,-0.137 4.738,-0.575 6.252,-0.972 2.499,-0.656 2.809,-0.434 3.38,2.422 0.621,3.105 0.697,3.141 6.272,2.974 3.607996,-0.109 6.805996,0.432 8.868996,1.499 3.071,1.588 4.265,1.109 2.324,-0.933 -0.497,-0.522 -1.059,-3.03 -1.25,-5.573 -0.26,-3.461 -0.023,-4.499 0.94,-4.129 2.82,1.083 4.949,-2.689 5.668,-10.04 0.417,-4.256 1.347,-7.922 2.273,-8.95 1.96,-2.178 3.53,-10.526 3.34,-17.758 -0.162,-6.209 1.968,-3.68 -20.847996,-24.75 -6.701,-6.187 -12.408,-11.25 -12.682,-11.25 -0.275,0 -0.741,1.012 -1.035,2.25"
     id="Cumberland" />
  <path class="county"
     d="m 136.18211,363.10375 c -2.489,2.613 -9.223,10.114 -14.962,16.669 -5.74,6.556 -13.006,14.656 -16.148,18 l -5.711996,6.081 4.871996,4.5 c 2.68,2.475 7.613,7.12 10.964,10.323 l 6.092,5.822 -0.536,7.678 c -1.091,15.659 -1.178,14.647 1.282,14.997 1.238,0.175 2.25,0.738 2.25,1.25 0,0.511 2.25,0.93 5,0.93 2.75,0 5,0.385 5,0.856 0,0.471 3.182,1.153 7.07,1.514 5.321,0.494 7.858,0.284 10.25,-0.849 3.321,-1.573 4.923,-1.742 13.18,-1.389 4.981,0.213 5.002,0.201 5.5,-3.209 0.38,-2.599 1.041,-3.5 2.748,-3.742 1.483,-0.211 2.467,-1.233 2.888,-3 0.352,-1.475 1.083,-3.243 1.624,-3.931 1.371,-1.74 5.682,-1.566 6.381,0.258 0.736,1.916 -2.15,8.089 -4.136,8.852 -0.828,0.317 -1.505,1.266 -1.505,2.109 0,1.964 0.894,1.937 3.139,-0.095 0.989,-0.894 4.592,-3.032 8.008,-4.75 6.094,-3.065 8.568,-5.624 5.436,-5.624 -0.871,0 -1.583,-0.51 -1.583,-1.133 0,-0.623 -0.939,-1.947 -2.087,-2.942 -1.588,-1.377 -2.663,-1.591 -4.5,-0.892 -1.736,0.66 -2.417,0.574 -2.427,-0.308 -0.007,-0.674 -0.273,-2.194 -0.591,-3.379 -0.429,-1.599 -0.039,-2.324 1.514,-2.817 1.376,-0.437 2.091,-1.506 2.091,-3.128 0,-1.355 0.675,-2.723 1.5,-3.039 0.825,-0.317 1.5,-1.203 1.5,-1.969 0,-1.665 0.511,-1.725 3.066,-0.358 1.064,0.57 1.934,1.668 1.934,2.441 0,0.773 0.397,1.652 0.883,1.952 0.485,0.3 0.74,-1.578 0.565,-4.172 -0.175,-2.595 0.116,-4.987 0.647,-5.315 0.584,-0.36 0.363,-1.752 -0.559,-3.519 -0.838,-1.607 -1.526,-4.835 -1.53,-7.172 -0.003,-2.337 -0.456,-4.25 -1.006,-4.25 -0.55,0 -1,0.675 -1,1.5 0,1.908 -2.059,1.923 -4.559,0.032 -1.067,-0.808 -2.633,-1.483 -3.48,-1.5 -2.328,-0.048 -8.28,-3.319 -11.539,-6.342 -1.596,-1.479 -3.522,-2.69 -4.28,-2.69 -0.758,0 -2.949,-1.379 -4.869,-3.065 -2.068,-1.816 -4.116,-2.826 -5.023,-2.477 -0.842,0.323 -2.528,-0.065 -3.745,-0.863 -1.768,-1.158 -2.33,-2.724 -2.787,-7.769 -0.465,-5.127 -1.006,-6.601 -2.872,-7.822 -1.264,-0.827 -3.719,-2.742 -5.454,-4.254 -1.736,-1.512 -3.339,-2.75 -3.562,-2.75 -0.223,0 -2.442,2.137 -4.932,4.75"
     id="Atlantic" />
  <path class="county"
     d="m 20.068114,348.10375 c -1.425,1.512 -3.225,4.658 -3.999,6.99 -0.774,2.333 -2.289,5.258 -3.367,6.5 -1.077,1.243 -2.507,4.096 -3.1769997,6.339 -0.69,2.309 -2.743,5.466 -4.73,7.275 -5.16299003,4.697 -4.63899003,6.958 2.88,12.446 1.522,1.11 1.757,2.096 1.205,5.04 -0.378,2.013 -1.094,3.66 -1.591,3.66 -0.498,0 -1.04,2.587 -1.205,5.75 -0.275,5.276 -0.506,5.779 -2.8,6.101 -3.48399003,0.489 -4.14799003,2.09 -2.21999,5.354 1.25099,2.117 2.41399,2.795 4.79499,2.795 2.254,0 4.4559997,1.155 7.7839997,4.085 2.553,2.247 4.641,4.558 4.641,5.135 0,0.931 4.761,5.992 5.157,5.482 0.087,-0.111 0.229,-3.207 0.317,-6.879 0.186,-7.754 1.315,-9.654 5.383,-9.057 2.392,0.351 3.373,-0.201 5.638,-3.171 1.508,-1.977 3.469,-3.595 4.358,-3.595 0.888,0 4.831,-3.476 8.761,-7.724 l 7.146,-7.724 5.793,4.974 c 16.622,14.272 19.725,16.643 20.383,15.578 0.379,-0.613 0.767,-4.771 0.862,-9.24 0.102,-4.808 0.686,-8.742 1.43,-9.639 1.066,-1.284 -0.489,-3.161 -10.235,-12.352 -10.476,-9.878 -13.993,-12.395 -13.993,-10.012 0,1.758 -5.177,-0.202 -6.709,-2.539 -0.873,-1.333 -2.167,-2.2 -2.876,-1.928 -1.201,0.461 -9.303,-2.154 -10.415,-3.362 -0.275,-0.299 -2.187,-1.801 -4.25,-3.339 -2.415,-1.8 -3.75,-3.605 -3.75,-5.07 0,-1.251 -1.129,-3.335 -2.509,-4.632 -1.62,-1.521 -2.305,-3.001 -1.933,-4.174 0.928,-2.923 -3.749,-2.279 -6.774,0.933"
     id="Salem" />
  <path class="county"
     d="m 67.284114,324.08875 c -1.925,0.228 -4.459,1.308 -5.63,2.401 -2.745,2.561 -10.755,4.991 -15.87,4.816 -6.743,-0.232 -7.149,-0.088 -12.783,4.501 -5.276,4.298 -5.449,4.595 -4.992,8.556 0.273,2.357 1.444,5.149 2.753,6.561 1.253,1.352 2.546,3.802 2.875,5.444 0.328,1.642 1.205,2.986 1.948,2.986 0.743,0 2.36,1.075 3.595,2.389 2.164,2.304 6.043,3.741 10.947,4.056 1.289,0.083 3.102,1.156 4.029,2.385 1.223,1.622 2.56,2.169 4.869,1.993 2.958,-0.226 5.731,1.428 9.73,5.802 0.566,0.619 6.204,5.761 12.529,11.426 6.325,5.665 11.725,10.558 12,10.874 0.275,0.316 1.52,1.439 2.767,2.495 2.236,1.894 2.291,1.894 3.999996,-0.01 0.953,-1.062 4.747,-5.217 8.43,-9.235 l 6.697,-7.304 -1.789,-3.185 c -0.984,-1.752 -2.097,-4.828 -2.473,-6.835 -0.938,-4.999 -3.771,-8.276 -8.339,-9.645 -4.470996,-1.34 -11.292996,-7.197 -11.292996,-9.697 0,-0.947 -1.421,-3.516 -3.159,-5.709 -6.308,-7.965 -8,-11.029 -7.404,-13.403 0.438,-1.748 -0.453,-3.51 -3.679,-7.278 -2.342,-2.734 -4.708,-4.933 -5.258,-4.885 -0.55,0.047 -2.575,0.273 -4.5,0.501"
     id="Gloucester" />
  <path class="county"
     d="m 87.284114,300.06275 c -0.825,0.304 -2.175,1.115 -3,1.803 -0.825,0.688 -2.625,1.581 -4,1.985 -1.375,0.403 -3.457,1.608 -4.627,2.677 -1.86,1.699 -2.083,2.824 -1.778,8.941 0.364,7.309 2.434,11.76 6.475,13.922 1.317,0.705 1.93,2.097 1.93,4.384 0,4.056 1.206,6.453 6.75,13.419 2.337,2.937 4.25,6.034 4.25,6.882 0,2.484 6.752996,8.141 10.573996,8.858 3.905,0.733 8.426,6.161 8.426,10.118 0,2.482 2.979,9.302 4.063,9.302 1.391,0 3.089,-2.946 2.369,-4.111 -0.451,-0.729 -0.318,-0.936 0.34,-0.53 0.608,0.376 4.698,-3.38 9.361,-8.596 4.554,-5.094 8.824,-9.82 9.489,-10.5 0.951,-0.973 -0.021,-2.525 -4.555,-7.274 -6.141,-6.434 -5.578,-6.241 -16.561,-5.69 l -3.993,0.201 -3.007,-11 c -1.653,-6.05 -4.017,-12.575 -5.252,-14.5 -1.236,-1.925 -2.248,-3.785 -2.25,-4.133 -0.002,-0.349 -0.904,-0.869 -2.004,-1.157 -1.099996,-0.287 -1.999996,-1.24 -1.999996,-2.116 0,-1.441 -1.324,-1.972 -4.674,-1.875 -0.775,0.022 -1.097,-1.649 -0.947,-4.913 0.176,-3.829 -0.165,-5.156 -1.51,-5.876 -0.956,-0.512 -1.88,-0.894 -2.053,-0.851 -0.174,0.043 -0.991,0.327 -1.816,0.63"
     id="Camden" />
  <path class="county"
     d="m 187.77811,268.56175 c -4.953,4.561 -10.267,9.206 -11.809,10.322 l -2.802,2.031 7.605,18.969 c 4.183,10.434 8.542,20.995 9.687,23.47 1.144,2.475 2.663,6.145 3.375,8.155 0.712,2.01 2.743,6.957 4.515,10.993 l 3.221,7.338 -0.691,18.744 c -0.661,17.964 -1.689,24.77 -3.74,24.77 -0.521,0 -0.14,1.111 0.848,2.469 1.87,2.569 4.709,3.291 5.827,1.482 0.445,-0.72 1.075,-0.693 2.015,0.087 0.752,0.624 1.73,0.91 2.172,0.637 1.589,-0.982 4.553,2.184 4.005,4.279 -0.622,2.381 0.506,2.681 2.238,0.595 0.98,-1.182 0.538,-2.118 -2.378,-5.034 -3.986,-3.986 -4.605,-7.014 -1.594,-7.802 1.093,-0.286 2.409,-1.627 2.923,-2.98 0.975,-2.563 2.909,-3.733 6.171,-3.733 1.055,0 1.818,-0.337 1.695,-0.75 -0.123,-0.413 0.437,-2.212 1.244,-4 0.99,-2.193 2.161,-3.25 3.602,-3.25 1.429,0 2.545,-0.992 3.377,-3 0.683,-1.65 1.863,-3 2.621,-3 0.759,0 1.393,-0.788 1.411,-1.75 0.017,-0.962 0.694,-2.626 1.504,-3.698 0.811,-1.071 1.216,-2.758 0.901,-3.75 -0.314,-0.991 -0.091,-1.802 0.496,-1.802 1.895,0 1.132,-2.17 -0.956,-2.716 -1.784,-0.467 -1.976,-1.169 -1.62,-5.91 0.222,-2.96 0.867,-5.942 1.434,-6.627 0.566,-0.686 1.345,-2.934 1.731,-4.997 0.405,-2.167 1.279,-3.75 2.07,-3.75 1.752,0 3.173,-5.245 1.566,-5.781 -1.697,-0.565 -1.415,-3.219 0.342,-3.219 0.825,0 1.502,-0.788 1.504,-1.75 0.002,-0.962 0.902,-3.223 2,-5.024 2.491,-4.086 2.484,-4.205 -0.207,-3.687 -1.212,0.234 -3.221,-0.242 -4.465,-1.057 -1.244,-0.815 -2.952,-1.482 -3.797,-1.482 -2.257,0 -1.871,-2.679 0.476,-3.293 1.105,-0.289 3.349,-0.02 4.986,0.598 3.398,1.283 4.524,0.563 5.537,-3.54 0.574,-2.324 0.283,-2.884 -1.929,-3.725 -3.685,-1.401 -3.582,-5.017 0.145,-5.103 2.523,-0.059 2.575,-0.134 0.632,-0.919 -2.46,-0.994 -3.904,-6.018 -1.73,-6.018 1.571,0 5.533,2.067 6.491,3.385 0.621,0.857 2.857,-2.366 2.857,-4.118 0,-0.476 -1.502,-0.69 -3.338,-0.476 -2.243,0.262 -3.908,-0.18 -5.074,-1.346 -2.274,-2.274 -0.246,-3.702 3.096,-2.179 1.84,0.838 3.152,0.706 5.874,-0.592 3.278,-1.563 3.547,-1.563 4.149,0.004 0.575,1.499 0.722,1.472 1.398,-0.251 0.415,-1.06 0.786,-2.967 0.825,-4.238 0.066,-2.172 -0.195,-2.272 -4.341,-1.65 -4.002,0.6 -4.57,0.42 -6.116,-1.941 -0.938,-1.431 -1.478,-3.472 -1.2,-4.535 0.639,-2.443 -2.294,-3.777 -3.513,-1.598 -0.476,0.851 -1.934,2.781 -3.24,4.291 l -2.375,2.744 -2.2,-2.344 c -1.873,-1.997 -2.822,-2.252 -6.398,-1.715 -5.375,0.806 -7.547,-0.059 -7.547,-3.007 0,-1.293 -0.788,-3.934 -1.75,-5.868 l -1.75,-3.517 -7.5,-0.075 c -4.125,-0.042 -9.3,-0.297 -11.5,-0.567 -3.857,-0.473 -4.321,-0.195 -13.006,7.801"
     id="Ocean" />
  <path class="county"
     d="m 146.01111,260.70675 c 0.354,1.849 -0.333,3.007 -2.978,5.025 -1.891,1.442 -4.07,2.636 -4.843,2.654 -0.773,0.017 -2.306,0.712 -3.406,1.544 -1.376,1.041 -3.142,1.321 -5.66,0.896 -3.222,-0.543 -3.743,-0.34 -4.364,1.705 -1.074,3.536 -6.042,7.631 -10.752,8.864 -5.941,1.554 -12.456,4.881 -15.032996,7.676 -1.205,1.307 -3.796,3.222 -5.758,4.257 -1.962,1.034 -4.108,2.531 -4.769,3.328 -0.998,1.203 -0.746,1.448 1.489,1.448 3.162,0 5.673,2.846 4.445,5.039 -0.982,1.756 -0.24,5.396 1.314,6.446 0.599,0.404 2.131,0.741 3.405,0.75 1.859996,0.012 2.191996,0.41 1.682996,2.015 -0.427,1.345 -0.18,2 0.755,2 2.756,0 7.032,8.399 9.671,19 l 2.615,10.5 6.781,-0.316 c 6.718,-0.314 6.817,-0.28 10.705,3.608 2.158,2.158 4.232,3.65 4.609,3.316 0.376,-0.334 0.361,-0.045 -0.035,0.642 -0.395,0.688 -0.311,1.25 0.187,1.25 0.498,0 1.987,0.949 3.309,2.108 1.322,1.159 4.973,4.137 8.114,6.617 5.59,4.413 8.793,9.841 7.266,12.312 -1.07,1.731 0.445,6.207 1.91,5.645 1.661,-0.638 8.684,2.483 10.485,4.66 0.755,0.912 1.965,1.658 2.689,1.658 0.723,0 2.794,1.35 4.6,3 1.807,1.65 3.712,3 4.233,3 0.522,0 1.733,0.71 2.692,1.577 0.992,0.899 3.986,1.705 6.955,1.873 4.397,0.25 5.289,0.003 5.702,-1.577 0.27,-1.03 1.095,-1.873 1.835,-1.873 2.378,0 3.355,-7.09 3.447,-25 l 0.089,-17.5 -8.651,-20.5 c -4.757,-11.275 -9.563,-22.975 -10.68,-26 -1.116,-3.025 -2.424,-5.928 -2.906,-6.45 -0.483,-0.522 -0.877,-1.56 -0.877,-2.305 0,-3.029 -10.921,-25.412 -12.057,-24.71 -0.519,0.321 -0.943,0.106 -0.943,-0.476 0,-0.582 -0.9,-1.059 -2,-1.059 -1.1,0 -2,-0.395 -2,-0.879 0,-0.483 -1.303,-1.418 -2.895,-2.077 -1.592,-0.66 -3.764,-2.01 -4.827,-2.999 -1.062,-0.99 -2.849,-2.092 -3.971,-2.448 -1.734,-0.55 -1.97,-0.287 -1.58,1.756"
     id="Burlington" />
  <path class="county"
     d="m 132.10711,206.06275 c -2.43,0.372 -2.627,0.722 -2.131,3.783 0.53,3.264 0.424,3.393 -3.322,4.028 -7.299,1.235 -7.3,1.236 -6.288,4.765 0.505,1.761 0.918,3.295 0.918,3.409 0,0.114 -2.716,0.514 -6.035,0.889 -5.812,0.658 -5.972,0.752 -4.345,2.55 0.93,1.027 2.249,1.867 2.931,1.867 1.981,0 7.193,6.556 7.949,9.999 0.519,2.365 2.012,3.993 5.998,6.543 5.512,3.526 9.502,7.754 9.502,10.07 0,0.738 1.169,2.108 2.599,3.045 1.429,0.936 2.975,2.634 3.436,3.773 0.704,1.739 0.848,1.538 0.902,-1.259 0.061,-3.229 0.162,-3.308 3.313,-2.616 1.787,0.392 3.838,1.553 4.557,2.579 0.718,1.026 1.801,1.866 2.405,1.866 0.605,0 2.574,1.125 4.377,2.5 4.747,3.621 5.601,3.108 3.394,-2.039 -1.55,-3.617 -1.675,-4.642 -0.613,-5.049 0.732,-0.281 1.736,-0.436 2.231,-0.343 2.801,0.524 4.622,-0.437 6.629,-3.498 1.236,-1.887 4.351,-4.659 6.923,-6.16 4.424,-2.584 6.068,-5.248 5.076,-8.224 -0.484,-1.451 -6.622,-4.187 -9.394,-4.187 -1.056,0 -4.369,-1.809 -7.363,-4.02 -2.993,-2.212 -5.786,-4.023 -6.207,-4.026 -0.421,-0.003 -0.765,-3.032 -0.765,-6.73 0,-6.216 -0.17,-6.748 -2.255,-7.044 -1.24,-0.176 -4.751,0.614 -7.802,1.755 l -5.548,2.076 -2.435,-5.505 c -2.499,-5.652 -2.618,-5.718 -8.637,-4.797"
     id="Mercer" />
  <path class="county"
     d="m 232.55611,200.60375 c -1.953,2.16 -4.272,2.277 -4.272,0.215 0,-1.225 -0.404,-1.319 -2,-0.465 -1.356,0.725 -2.006,2.106 -2.018,4.285 -0.015,2.557 -1.28,4.546 -6.181,9.715 -3.39,3.575 -9.501,10.325 -13.579,15 -4.078,4.675 -8.609,9.119 -10.069,9.875 -1.459,0.756 -3.408,2.035 -4.331,2.84 -1.016,0.887 -2.506,1.203 -3.775,0.8 -1.384,-0.439 -2.004,-0.258 -1.822,0.534 0.151,0.659 -1.975,2.457 -4.725,3.994 -2.75,1.537 -6.073,4.406 -7.385,6.376 -1.312,1.97 -3.198,3.581 -4.191,3.581 -0.993,0 -2.089,0.457 -2.434,1.016 -0.346,0.559 -1.047,0.758 -1.559,0.441 -1.849,-1.142 -0.854,2.173 3.235,10.777 2.291,4.821 4.763,8.766 5.492,8.766 0.73,0 5.943,-4.273 11.585,-9.494 l 10.257,-9.495 13.253,0.245 c 7.289,0.134 13.242,0.586 13.23,1.004 -0.013,0.419 0.727,2.213 1.645,3.987 0.917,1.774 1.714,4.132 1.77,5.239 0.09,1.781 0.834,2.029 6.432,2.144 3.481,0.071 6.833,0.633 7.448,1.248 0.824,0.824 2.247,-0.131 5.41,-3.63 2.361,-2.611 4.04,-4.001 3.73,-3.088 -0.367,1.082 0.117,1.875 1.391,2.279 1.156,0.367 2.205,1.879 2.57,3.708 0.523,2.612 0.964,2.994 2.869,2.484 1.239,-0.332 2.977,-0.61 3.863,-0.617 1.229,-0.011 1.741,-1.378 2.157,-5.764 0.301,-3.163 0.839,-6.48 1.197,-7.372 0.513,-1.279 0.156,-1.528 -1.685,-1.176 -2.431,0.464 -6.454,-2.802 -5.451,-4.425 0.608,-0.984 5.334,-0.947 6.33,0.049 1.432,1.432 2.274,0.532 2.882,-3.076 0.348,-2.062 1.493,-6.339 2.545,-9.504 1.053,-3.165 1.914,-7.582 1.914,-9.816 0,-2.234 0.479,-4.957 1.065,-6.051 1.649,-3.082 0.593,-4.496 -1.621,-2.17 -1.069,1.124 -2.956,2.354 -4.194,2.734 -1.995,0.613 -2.25,0.344 -2.25,-2.376 0,-1.687 0.365,-3.067 0.811,-3.067 1.171,0 5.189,-3.903 5.189,-5.039 0,-2.302 -5.809,-0.625 -10.274,2.965 -2.372,1.908 -4.705,-0.042 -2.799,-2.338 2.164,-2.607 9.858,-6.608 11.497,-5.979 0.867,0.333 1.576,0.177 1.576,-0.347 0,-1.717 -3.608,-4.262 -6.044,-4.262 -1.312,0 -6.201,-1.864 -10.865,-4.142 -9.429,-4.607 -15.242,-5.458 -17.819,-2.608"
     id="Monmouth" />
  <path class="county"
     d="m 193.78411,166.79775 c -16.65,1.982 -19.604,4.962 -12.883,13.002 2.093,2.504 4.611,4.809 5.595,5.121 2.237,0.71 2.4,5.261 0.218,6.098 -0.863,0.332 -3.783,2.942 -6.487,5.802 -2.704,2.859 -6.728,6.061 -8.942,7.116 -3.163,1.506 -4.242,2.712 -5.041,5.63 -0.56,2.043 -1.827,4.293 -2.817,5 -3.256,2.328 -4.764,10.787 -1.923,10.787 0.591,0 2.996,1.575 5.345,3.5 2.35,1.925 5.291,3.5 6.538,3.5 1.246,0 4.208,0.94 6.581,2.089 3.317,1.606 4.316,2.648 4.316,4.5 0,1.525 0.577,2.411 1.572,2.411 2.066,0 10.682,-4.996 11.811,-6.849 1.404,-2.304 17.787,-20.306 21.367,-23.478 2.604,-2.308 3.25,-3.645 3.25,-6.727 0,-2.483 0.566,-4.163 1.597,-4.74 1.321,-0.739 0.975,-1.261 -2,-3.016 -1.978,-1.168 -3.597,-2.704 -3.597,-3.416 0,-0.711 -0.979,-1.905 -2.177,-2.652 -1.903,-1.189 -2.342,-1.132 -3.5,0.45 -0.727,0.996 -1.323,2.174 -1.323,2.619 0,0.445 -1.575,0.809 -3.5,0.809 -1.925,0 -3.5,-0.294 -3.5,-0.654 0,-0.359 1.913,-2.423 4.25,-4.586 3.901,-3.609 4.512,-3.852 7.441,-2.958 3.003,0.917 3.254,0.795 4.25,-2.063 0.582,-1.671 1.059,-4.078 1.059,-5.349 0,-1.271 0.707,-2.891 1.572,-3.601 4.266,-3.5 5.428,-4.953 5.428,-6.789 0,-2.368 -1.944,-2.542 -8.579,-0.768 -4.092,1.095 -4.75,1.039 -5.875,-0.5 -1.479,-2.022 -5.046,-2.073 -20.046,-0.288"
     id="Middlesex" />
  <path class="county"
     d="m 194.97511,142.85075 c -3.68,3.573 -6.691,7.222 -6.691,8.108 0,1.626 0.136,1.622 6.75,-0.214 1.927,-0.535 2.25,-0.241 2.25,2.042 0,3.616 -2.365,7.927 -5.722,10.432 -2.645,1.972 -2.672,2.073 -0.567,2.103 1.216,0.018 6.758,-0.463 12.317,-1.067 9.222,-1.004 10.218,-0.947 11.383,0.647 0.983,1.344 1.947,1.566 4.183,0.96 1.598,-0.433 4.242,-0.837 5.874,-0.898 2.517,-0.093 3.126,-0.659 4,-3.719 1.248,-4.363 3.213,-6.88 5.404,-6.922 1.966,-0.038 5.482,-4.586 4.622,-5.978 -0.336,-0.545 -2.367,-0.991 -4.513,-0.991 -2.793,0 -4.55,-0.673 -6.191,-2.372 -2.807,-2.906 -10.857,-5.73 -12.968,-4.548 -1.889,1.057 -8.183,-0.605 -9.836,-2.597 -2.009,-2.42 -3.272,-1.805 -10.295,5.014"
     id="Union" />
  <path class="county"
     d="m 157.30411,135.33075 -12.48,3.64 -0.251,5.442 c -0.461,10.035 -0.284,12.11 1.217,14.254 1.887,2.693 1.871,3.168 -0.182,5.22 -1.358,1.359 -1.45,2.036 -0.484,3.582 1.264,2.024 -0.144,5.136 -4.152,9.181 -0.997,1.005 -2.647,3.775 -3.667,6.155 -1.02,2.38 -2.374,4.5 -3.009,4.712 -1.687,0.562 8.818,25.837 10.739,25.837 0.814,0 3.593,-0.75 6.176,-1.668 4.291,-1.524 4.966,-1.532 7.842,-0.097 2.64,1.317 3.33,1.351 4.275,0.211 0.621,-0.747 0.795,-1.898 0.388,-2.557 -0.451,-0.73 -0.318,-0.936 0.342,-0.529 0.632,0.391 1.217,-0.272 1.405,-1.591 0.203,-1.435 1.6,-2.866 3.821,-3.916 1.925,-0.91 6.128,-4.399 9.341,-7.754 3.212,-3.354 6.25,-6.099 6.75,-6.099 0.5,0 0.909,-0.675 0.909,-1.5 0,-0.825 -0.432,-1.5 -0.96,-1.5 -1.359,0 -8.381,-7.754 -9.342,-10.315 -1.469,-3.92 0.021,-6.072 6.273,-9.057 6.194,-2.956 13.029,-9.387 13.029,-12.259 0,-1.335 -0.712,-1.511 -4,-0.985 -3.185,0.509 -4,0.332 -4,-0.872 0,-2.132 -3.265,-1.878 -6.273,0.488 -3.135,2.466 -5.677,2.574 -5.878,0.25 -0.28,-3.256 0.309,-7.745 1.13,-8.598 0.912,-0.947 -1.791,-6.712 -3.729,-7.952 -0.687,-0.44 -1.25,-1.65 -1.25,-2.691 0,-1.04 -0.337,-2.067 -0.75,-2.282 -0.413,-0.215 -6.366,1.247 -13.23,3.25"
     id="Somerset" />
  <path class="county"
     d="m 111.78411,129.03075 c -2.2,2.536 -4.932,6.109 -6.071,7.94 -1.99,3.199 -8.474996,8.383 -10.486996,8.383 -1.501,0 -5.013,2.156 -9.942,6.104 -2.475,1.982 -6.525,4.863 -9,6.403 -4.797,2.982 -10.889,9.206 -10.958,11.193 -0.079,2.261 3.186,3.197 5.609,1.609 3.28,-2.149 8.054,-0.765 12.079,3.504 l 3.372,3.575 -0.272,12.256 c -0.258,11.659 -0.157,12.379 2.066,14.746 2.03,2.161 2.948,2.417 6.971,1.949 3.979,-0.463 4.944996,-0.204 6.845996,1.836 1.217,1.306 2.843,4.839 3.614,7.85 0.771,3.011 1.912,5.43 2.537,5.375 0.625,-0.055 3.435,-0.167 6.244,-0.25 5.042,-0.148 5.1,-0.186 4.423,-2.881 -0.377,-1.503 -0.763,-3.176 -0.858,-3.719 -0.095,-0.542 2.231,-1.408 5.168,-1.924 5.295,-0.93 5.338,-0.966 4.958,-4.22 -0.403,-3.453 0.814,-4.361 5.892,-4.392 1.205,-0.008 2.428,-0.397 2.717,-0.865 0.289,-0.468 -1.113,-4.965 -3.115,-9.993 -3.555,-8.928 -3.819,-11.667 -0.891,-9.237 1.202,0.997 1.781,0.466 3.384,-3.108 1.064,-2.371 3.351,-5.773 5.083,-7.561 2.644,-2.73 2.963,-3.546 1.992,-5.101 -0.905,-1.449 -0.812,-2.542 0.43,-5.03 1.483,-2.974 1.467,-3.253 -0.259,-4.331 -1.418,-0.886 -1.644,-1.679 -0.976,-3.434 0.528,-1.39 0.485,-2.52 -0.111,-2.888 -0.537,-0.332 -0.66,-1.119 -0.271,-1.748 0.389,-0.629 0.838,-3.287 0.998,-5.906 0.247,-4.05 -0.043,-4.95 -1.941,-6.02 -3.114,-1.756 -9.779,-3.759 -12.57,-3.777 -1.449,-0.009 -4.023,-1.747 -6.763,-4.566 -2.433,-2.503 -4.862,-4.28 -5.399,-3.948 -0.553,0.341 -0.718,-0.07 -0.381,-0.949 0.922,-2.402 0.202,-1.856 -4.118,3.125"
     id="Hunterdon" />
  <path class="county"
     d="m 258.84311,119.88575 c -1.068,0.807 -2.686,1.468 -3.595,1.468 -2.414,0 -4.964,3.252 -4.964,6.329 0,2.004 -0.499,2.671 -2,2.671 -1.1,0 -2,-0.633 -2,-1.406 0,-0.886 -0.698,-1.224 -1.887,-0.913 -1.038,0.271 -2.19,0.004 -2.559,-0.594 -1.212,-1.961 -2.38,-1.145 -3.584,2.505 -1.322,4.004 -0.137,6.519 1.909,4.054 0.657,-0.792 2.078,-1.209 3.158,-0.926 1.463,0.382 1.963,1.375 1.963,3.897 0,2.34 0.462,3.383 1.5,3.383 2.387,0 1.81,5.191 -1,9 -3.008,4.077 -2.998,4 -0.5,4 1.1,0 2,-0.482 2,-1.071 0,-1.099 2.438,-3.929 3.385,-3.929 0.291,0 2.339,-1.687 4.552,-3.75 3.424,-3.191 4.234,-4.764 5.432,-10.547 0.773,-3.739 2.132,-7.599 3.019,-8.579 2.077,-2.296 2.032,-3.434 -0.217,-5.469 -2.186,-1.979 -2.16,-1.978 -4.612,-0.123"
     id="Hudson" />
  <path class="county"
     d="m 208.84211,99.12875 c -1.006,1.006 -0.584,6.091 0.564,6.8 0.743,0.46 0.902,2.56 0.471,6.228 -0.511,4.348 -1.288,6.144 -3.622,8.375 -2.158,2.062 -2.971,3.772 -2.971,6.247 0,1.875 0.563,3.598 1.25,3.829 0.991,0.334 0.982,0.745 -0.041,1.986 -1.99,2.41 3.819,6.148 9.737,6.266 8.019,0.159 13.067,1.584 14.758,4.165 1.22,1.862 2.372,2.359 5.182,2.235 1.988,-0.088 4.395,0.169 5.35,0.569 1.986,0.833 3.369,-1.849 3.888,-7.541 0.239,-2.623 -0.034,-3.343 -1.156,-3.047 -5.23,1.377 -5.97,1.314 -6.086,-0.52 -0.192,-3.022 0.2,-4.627 2.213,-9.062 3.254,-7.166 2.804,-8.259 -6.095,-14.805 -4.4,-3.237 -8,-6.278 -8,-6.76 0,-0.481 -0.867,-0.6 -1.926,-0.264 -1.097,0.349 -2.28,0.054 -2.75,-0.684 -1.444,-2.269 -9.506,-5.277 -10.766,-4.017"
     id="Essex" />
  <path class="county"
     d="m 168.78411,72.623751 c -6.05,7.115004 -10.824,13.451999 -10.609,14.082999 1.36,3.985 -2.54,9.283 -8.966,12.181 -3.6,1.623 -3.783,1.608 -5.871,-0.48 -1.512,-1.512 -2.814,-1.959 -4.355,-1.495 -3.533,1.063 -8.699,6.565 -8.699,9.265 0,3.411 -5.495,12.636 -9.3,15.614 l -3.185,2.492 4.451,4.535 c 2.448,2.494 5.132,4.535 5.964,4.535 0.832,0 4.578,0.967 8.323,2.149 7.591,2.396 5.142,2.732 27.004,-3.707 7.494,-2.207 7.791,-2.221 8.75,-0.429 0.546,1.021 0.993,2.56 0.993,3.421 0,0.861 0.444,1.566 0.987,1.566 1.175,0 4.013,6.452 4.013,9.122 0,1.033 -0.352,1.878 -0.782,1.878 -1.171,0 -1.341,4.806 -0.195,5.514 0.546,0.338 1.696,-0.09 2.556,-0.95 0.86,-0.86 2.159,-1.564 2.885,-1.564 1.279,0 8.123,-5.802 15.333,-13 3.152,-3.147 3.524,-4.096 3.681,-9.402 0.148,-4.993 0.574,-6.246 2.766,-8.132 3.26,-2.804 4.886,-9.842 3.11,-13.466 -0.772,-1.574 -0.95,-3.796 -0.483,-6 0.694,-3.275 0.963,-3.478 4.183,-3.153 1.892,0.191 4.229,0.769 5.193,1.285 1.29,0.691 1.753,0.561 1.753,-0.49 0,-0.785 -0.698,-1.696 -1.551,-2.023 -1.267,-0.487 -1.43,-1.667 -0.888,-6.457 0.561,-4.955995 0.404,-5.961995 -1.018,-6.506995 -1.083,-0.416 -1.474,-1.298 -1.098,-2.482 0.488,-1.539 -0.392,-2.108 -5.416,-3.505 -3.299,-0.917 -7.082,-1.668004 -8.407,-1.668004 -1.324,0 -2.681,-0.711 -3.014,-1.58 -0.46,-1.199 -1.364,-1.413 -3.753,-0.888 -2.828,0.621 -3.092,0.483 -2.609,-1.364 0.32,-1.226 -0.141,-2.668 -1.146,-3.577 -1.513,-1.37 -2.008,-1.325 -4.915,0.443 -1.779,1.081 -3.672,1.966 -4.209,1.966 -1.529,0 -1.142,-4.691 0.524,-6.357 1.827,-1.828 1.921,-3.281 0.25,-3.869 -0.687,-0.243 -6.2,5.381 -12.25,12.496"
     id="Morris" />
  <path class="county"
     d="m 99.190114,60.866751 c -1.976,1.275 -4.142,3.642 -4.812,5.261 -1.425,3.441 -4.77,6.107 -11.26,8.976 -2.566,1.135004 -5.461,3.278004 -6.435,4.763004 -1.652,2.521 -1.657,2.763 -0.084,3.643 0.927,0.519 1.685,1.57 1.685,2.336995 0,1.881 3.971,8.507 5.099,8.507 0.495,0 0.901,0.58 0.901,1.289 0,0.708 0.9,3.053 2,5.211 3.098,6.077 2.448,10.5 -1.544,10.5 -2.071,0 -2.272,0.362 -1.802,3.256 0.451,2.777 -0.096,3.965 -3.72,8.081 -3.888,4.417 -4.532,4.773 -7.591,4.2 -2.302,-0.432 -3.343,-0.249 -3.343,0.589 0,0.669 -0.711,2.002 -1.58,2.962 -1.159,1.281 -1.316,2.239 -0.589,3.597 0.725,1.354 0.467,2.995 -0.962,6.111 -2.014,4.393 -1.812,6.204 0.69,6.204 1.875,0 1.85,2.89 -0.043,4.983 -1.101,1.215 -1.258,2.43 -0.609,4.694 0.502,1.749 0.502,3.647 0,4.439 -2.793,4.411 0.73,5.219 3.923,0.901 1.213,-1.641 3.66,-3.717 5.438,-4.613 1.777,-0.895 5.358,-3.395 7.957,-5.555 2.599,-2.159 7.409,-5.258 10.69,-6.886 3.28,-1.627 6.248,-3.417 6.594,-3.977 0.345996,-0.56 1.047996,-0.76 1.559996,-0.443 0.512,0.316 0.931,-0.09 0.931,-0.903 0,-0.814 2.25,-3.941 5,-6.95 2.75,-3.009 5,-5.858 5,-6.332 0,-0.474 1.997,-1.921 4.437,-3.215 4.546,-2.412 9.563,-8.417 9.563,-11.447 0,-0.933 0.45,-1.696 1,-1.696 0.55,0 1,-1.553 1,-3.45 0,-1.898 0.563,-3.81 1.25,-4.25 0.688,-0.44 2.06,-1.761 3.05,-2.935 1.772,-2.1 1.7,-2.253 -4.5,-9.5 -3.465,-4.050995 -6.636,-7.814995 -7.046,-8.364995 -3.045,-4.083 -14.58,-18.413004 -16.222,-20.153004 l -2.032,-2.152 -3.593996,2.318"
     id="Warren" />
  <path class="county"
     d="m 223.96911,60.973751 -4.559,11.62 2.4,3.801004 c 2.675,4.238 4.047,4.901 10.508,5.08 5.974,0.165 9.333,2.282 8.552,5.389995 -0.324,1.293 -0.1,3.619 0.498,5.17 0.597,1.55 1.225,4.25 1.395,5.999 0.17,1.748 1.032,4.211 1.915,5.472 1.782,2.545 2.163,6.848 0.606,6.848 -0.55,0 -1,1.485 -1,3.3 0,1.815 -0.392,3.728 -0.871,4.25 -1.628,1.776 -2.191,6.294 -0.884,7.102 2.319,1.433 5.243,0.863 7.057,-1.375 0.99,-1.223 4.048,-3.352 6.794,-4.731 4.165,-2.093 5.316,-2.306 6.948,-1.286 1.076,0.671 1.956,1.563 1.956,1.981 0,0.417 0.397,0.759 0.881,0.759 2.177,0 14.119,-33.442 14.119,-39.537995 0,-1.836 -2.085,-3.508 -10.75,-8.620004 -5.913,-3.488 -11.19,-6.526 -11.727,-6.751 -0.538,-0.225 -4.945,-2.815 -9.795,-5.756 -8.152,-4.942998 -18.103,-10.334998 -19.073,-10.334998 -0.226,0 -2.463,5.229 -4.97,11.619998"
     id="Bergen" />
  <path class="county"
     d="m 200.78411,35.892753 c -1.1,1.228 -4.025,4.588 -6.5,7.465 -2.475,2.878 -6.382,7.315 -8.683,9.859 -3.693,4.084 -4.016,4.813 -2.75,6.210998 1.831,2.023 1.812,3.366 -0.067,4.926 -2.683,2.226 -1.585,3.062 2.036,1.549 3.281,-1.371 3.677,-1.336 5.5,0.487 1.08,1.08 1.964,2.414 1.964,2.964 0,0.55 0.868,1 1.929,1 1.06,0 2.603,0.675 3.428,1.5 0.825,0.825 2.77,1.503 4.322,1.506 1.551,0.004 4.11,0.679 5.685,1.5 1.576,0.822004 3.938,1.494004 5.25,1.494004 2.27,0 2.552,0.329 2.786,3.25 0.055,0.688 0.715,1.897 1.466,2.687 0.981,1.033 1.191,2.918 0.747,6.698995 -0.503,4.282 -0.311,5.434 1.034,6.186 1.03,0.577 1.454,1.684 1.125,2.941 -0.29,1.109 -0.132,2.628 0.351,3.376 0.729,1.131 1.04,1.107 1.843,-0.139 0.806,-1.252 1.426,-0.978 3.75,1.654 3.736,4.234 16.021,13.606 16.55,12.626 0.232,-0.429 0.354,-2.13 0.271,-3.78 -0.082,-1.65 0.266,-3.56 0.775,-4.245 0.601,-0.809 0.358,-2.11 -0.694,-3.715 -0.89,-1.358 -1.618,-4.023 -1.618,-5.921 0,-1.899 -0.511,-3.623 -1.136,-3.831 -0.625,-0.208 -1.133,-2.383 -1.128,-4.833 0.01,-5.180995 -0.777,-5.918995 -6.337,-5.939995 -6.327,-0.023 -9.645,-1.651 -12.521,-6.142 l -2.622,-4.094004 4.772,-12.35 c 3.469,-8.977998 4.458,-12.599998 3.622,-13.264998 -0.633,-0.503 -4.3,-2.618 -8.15,-4.699 -3.85,-2.082 -8.8,-4.994 -11,-6.472 l -4,-2.687 -2,2.233"
     id="Passaic" />
  <path class="county"
     d="m 146.27411,0.38075321 c -0.819,0.518 -2.524,0.94899999 -3.788,0.95799999 -1.264,0.008 -3.34,1.14 -4.614,2.515 -1.275,1.375 -2.842,2.5 -3.484,2.5 -0.642,0 -1.458,0.759 -1.814,1.688 -0.357,0.928 -2.147,3.0029998 -3.978,4.6109998 -1.831,1.608 -3.619,4.111 -3.973,5.562 -0.354,1.452 -1.432,3.657 -2.395,4.901 -0.963,1.244 -1.532,3.098 -1.265,4.12 0.268,1.022 -0.788,4.227 -2.346,7.122 -1.558,2.895 -3.572,6.666 -4.475,8.38 -1.626,3.084 -7.259,8.174 -11.608,10.489 -2.388,1.271 -3.165996,3.416 -0.928,2.557 0.775,-0.297 3.219,1.889 5.904,5.280998 2.52,3.184 5.416,6.689 6.436,7.789 1.02,1.1 2.589,3.125 3.487,4.5 0.898,1.375 5.344,6.926004 9.88,12.334999 7.976,9.512 8.356,9.815 11.571,9.212 2.533,-0.475 3.788,-0.159 5.278,1.331 1.937,1.937 1.989,1.937 5.884,0.01 4.167,-2.062 6.944,-5.973 6.424,-9.046 -0.283,-1.671995 3.263,-7.910995 4.908,-8.634995 0.367,-0.162 3.746,-3.987004 7.51,-8.500004 5.641,-6.764 14.325,-16.778998 30.634,-35.324998 2.101,-2.389 3.767,-1.191 -32.11,-23.106 -8.455,-5.1639998 -16.334,-10.0199998 -17.51,-10.78999979 -1.43,-0.938 -2.63,-1.089 -3.628,-0.459"
     id="Sussex" />
</svg>
